<?xml version="1.0" encoding="UTF-8"?>
<svg width="32" height="32" viewBox="0 0 32 32" fill="none" xmlns="http://www.w3.org/2000/svg">
  <!-- Background gradient -->
  <defs>
    <linearGradient id="gradient" x1="0%" y1="0%" x2="100%" y2="100%">
      <stop offset="0%" style="stop-color:#22c55e"/>
      <stop offset="100%" style="stop-color:#3b82f6"/>
    </linearGradient>
  </defs>
  
  <!-- Rounded square background -->
  <rect width="32" height="32" rx="8" fill="url(#gradient)"/>
  
  <!-- Sparkles icon (centered) -->
  <path d="M16 7L18.1 11.4L23 12.2L19.5 15.6L20.4 20.4L16 18.1L11.6 20.4L12.5 15.6L9 12.2L13.9 11.4L16 7Z" 
        fill="white" stroke="white" stroke-width="1.5" stroke-linecap="round" stroke-linejoin="round"/>
  <path d="M23 19L23.8 20.8L26 21.2L24.5 22.7L24.8 24.8L23 23.8L21.2 24.8L21.5 22.7L20 21.2L22.2 20.8L23 19Z" 
        fill="white" stroke="white" stroke-width="1.5" stroke-linecap="round" stroke-linejoin="round"/>
  <path d="M9 19L9.8 20.8L12 21.2L10.5 22.7L10.8 24.8L9 23.8L7.2 24.8L7.5 22.7L6 21.2L8.2 20.8L9 19Z" 
        fill="white" stroke="white" stroke-width="1.5" stroke-linecap="round" stroke-linejoin="round"/>
</svg>
